<?xml version="1.0" encoding="UTF-8"?>
<svg id="a" data-name="Layer 1" xmlns="http://www.w3.org/2000/svg" width="64" height="64" viewBox="0 0 64 64">
  <path d="m63.099,14.43v34.208c0,1.457-1.01,2.633-2.435,2.949l-27.989,6.132c-.444.099-.904.099-1.349,0l-27.989-6.132c-1.423-.317-2.436-1.578-2.436-3.036V14.43c0-2.023,1.901-3.507,3.864-3.017l2.355.589v31.649c0,1.458,1.013,2.712,2.436,3.032l22.443,4.985,22.444-4.988c1.423-.316,2.436-1.665,2.436-3.036V12.002l2.352-.589c1.963-.491,3.867.993,3.867,3.017ZM30.445,48.136l-20.214-4.493V11.32c0-1.908,1.7-3.365,3.586-3.074l16.628,2.573v37.316Zm23.324-4.491l-20.214,4.493V10.819l16.629-2.572c1.884-.292,3.585,1.166,3.585,3.073v32.325Z" fill="#344966"/>
</svg>