<svg width="21" height="21" viewBox="0 0 21 21" fill="none" xmlns="http://www.w3.org/2000/svg">
<path d="M20.0016 17.9143C20.5623 18.5374 20.5623 19.472 20.0016 20.0327C19.3785 20.6558 18.4439 20.6558 17.8832 20.0327L10.5312 12.6184L3.11683 20.0327C2.49378 20.6558 1.5592 20.6558 0.998448 20.0327C0.375395 19.472 0.375395 18.5374 0.998448 17.9143L8.41278 10.5L0.998448 3.08567C0.375395 2.46262 0.375395 1.52804 0.998448 0.96729C1.5592 0.344237 2.49378 0.344237 3.05452 0.96729L10.5312 8.44392L17.9455 1.02959C18.5062 0.406542 19.4408 0.406542 20.0016 1.02959C20.6246 1.59034 20.6246 2.52492 20.0016 3.14797L12.5872 10.5L20.0016 17.9143Z" fill="#5C91CC"/>
</svg>
